<svg xmlns="http://www.w3.org/2000/svg" version="1.1" xmlns:xlink="http://www.w3.org/1999/xlink" xmlns:svgjs="http://svgjs.dev/svgjs" width="100" height="45" viewBox="0 0 1000 159"><g transform="matrix(1,0,0,1,-0.6060606060606233,-0.1810821443856696)"><svg viewBox="0 0 396 63" data-background-color="#ffffff" preserveAspectRatio="xMidYMid meet" height="159" width="1000" xmlns="http://www.w3.org/2000/svg" xmlns:xlink="http://www.w3.org/1999/xlink"><g id="tight-bounds" transform="matrix(1,0,0,1,0.2400000000000091,0.07174952890753161)"><svg viewBox="0 0 395.52 62.85650094218493" height="62.85650094218493" width="395.52"><g><svg viewBox="0 0 525.3169423771484 83.4839828162291" height="62.85650094218493" width="395.52"><g><rect width="7.491215647599809" height="83.4839828162291" x="102.695214563057" y="0" fill="#ffffff" opacity="1" stroke-width="0" stroke="transparent" fill-opacity="1" class="rect-o-0" data-fill-palette-color="primary" rx="1%" id="o-0" data-palette-color="#ffffff"></rect></g><g transform="matrix(1,0,0,1,129.79694237714844,0.20767159904534083)"><svg viewBox="0 0 395.52 83.06863961813842" height="83.06863961813842" width="395.52"><g id="textblocktransform"><svg viewBox="0 0 395.52 83.06863961813842" height="83.06863961813842" width="395.52" id="textblock"><g><svg viewBox="0 0 395.52 83.06863961813842" height="83.06863961813842" width="395.52"><g transform="matrix(1,0,0,1,0,0)"><svg width="395.52" viewBox="4.449999809265137 -37.95000076293945 188.54000854492188 39.60000228881836" height="83.06863961813842" data-palette-color="#ffffff"><path d="M4.45 0L4.45-36.25 13.55-36.25Q19.05-36.25 22.85-34.6 26.65-32.95 29.03-30.28 31.4-27.6 32.48-24.28 33.55-20.95 33.55-17.65L33.55-17.65Q33.55-13.6 32.1-10.33 30.65-7.05 28.15-4.75 25.65-2.45 22.35-1.23 19.05 0 15.35 0L15.35 0 4.45 0ZM9.9-5.2L14.55-5.2Q17.45-5.2 19.93-6.05 22.4-6.9 24.23-8.53 26.05-10.15 27.08-12.53 28.1-14.9 28.1-18L28.1-18Q28.1-21.3 26.95-23.75 25.8-26.2 23.95-27.83 22.1-29.45 19.78-30.23 17.45-31 15.05-31L15.05-31 9.9-31 9.9-5.2ZM40 0L40-36.25 45.45-36.25 45.45 0 40 0ZM80.7-36.25L86.15-36.25 86.15 1.65Q85.45 0.75 83.45-1.25 81.45-3.25 78.85-5.85 76.25-8.45 73.32-11.3 70.4-14.15 67.8-16.73 65.2-19.3 63.25-21.33 61.3-23.35 60.65-24.2L60.65-24.2 59.7-25.5 59.85-23.9 59.85 0 54.35 0 54.35-37.95Q54.9-37.25 56.17-35.95 57.45-34.65 59.17-32.93 60.9-31.2 62.97-29.2 65.05-27.2 67.17-25.15 69.3-23.1 71.37-21.13 73.45-19.15 75.17-17.45 76.9-15.75 78.15-14.45 79.4-13.15 79.9-12.5L79.9-12.5 80.85-11.1 80.7-12.8 80.7-36.25ZM121.39-36.25L126.84-36.25 126.84 1.65Q126.14 0.75 124.14-1.25 122.14-3.25 119.54-5.85 116.94-8.45 114.02-11.3 111.09-14.15 108.49-16.73 105.89-19.3 103.94-21.33 101.99-23.35 101.34-24.2L101.34-24.2 100.39-25.5 100.54-23.9 100.54 0 95.04 0 95.04-37.95Q95.59-37.25 96.87-35.95 98.14-34.65 99.87-32.93 101.59-31.2 103.67-29.2 105.74-27.2 107.87-25.15 109.99-23.1 112.07-21.13 114.14-19.15 115.87-17.45 117.59-15.75 118.84-14.45 120.09-13.15 120.59-12.5L120.59-12.5 121.54-11.1 121.39-12.8 121.39-36.25ZM160.24 0L135.74 0 135.74-36.25 159.54-36.25 159.54-31.3 141.24-31.3 141.24-20.7 157.54-20.7 157.54-15.65 141.24-15.65 141.24-5.05 160.24-5.05 160.24 0ZM172.09 0L166.59 0 166.59-36.25 176.49-36.25Q179.34-36.25 181.71-35.5 184.09-34.75 185.81-33.27 187.54-31.8 188.49-29.68 189.44-27.55 189.44-24.8L189.44-24.8Q189.44-23.3 189.14-21.83 188.84-20.35 188.16-18.98 187.49-17.6 186.44-16.43 185.39-15.25 183.89-14.45L183.89-14.45Q185.89-11.3 188.24-7.48 190.59-3.65 192.99 0L192.99 0 186.44 0Q185.44-1.55 184.36-3.25 183.29-4.95 182.21-6.63 181.14-8.3 180.11-9.93 179.09-11.55 178.19-12.95L178.19-12.95 177.19-12.95 172.09-12.95 172.09 0ZM172.09-31.15L172.09-18.1 177.04-18.1Q179.04-18.1 180.39-18.78 181.74-19.45 182.51-20.45 183.29-21.45 183.61-22.6 183.94-23.75 183.94-24.7L183.94-24.7Q183.94-25.65 183.61-26.78 183.29-27.9 182.49-28.88 181.69-29.85 180.36-30.5 179.04-31.15 177.09-31.15L177.09-31.15 172.09-31.15Z" opacity="1" transform="matrix(1,0,0,1,0,0)" fill="#ffffff" class="wordmark-text-0" data-fill-palette-color="primary" id="text-0"></path></svg></g></svg></g></svg></g></svg></g><g transform="matrix(1,0,0,1,0,0.20767159904534083)"><svg viewBox="0 0 83.08470239656535 83.06863961813842" height="83.06863961813842" width="83.08470239656535"><g><svg xmlns="http://www.w3.org/2000/svg" xmlns:xlink="http://www.w3.org/1999/xlink" version="1.1" x="0" y="0" viewBox="0.00000286102294921875 0.010000000707805157 99.99932861328125 99.97999572753906" enable-background="new 0 0 100 100" xml:space="preserve" height="83.06863961813842" width="83.08470239656535" class="icon-icon-0" data-fill-palette-color="accent" id="icon-0"><g fill="#ffffff" data-fill-palette-color="accent"><path d="M70.227 32.832c0.012 0.013 0.037 0.013 0.049 0.024l3.251 1.59c0.223 0.11 0.444 0.159 0.678 0.159 0.567 0 1.108-0.32 1.381-0.861 0.38-0.763 0.06-1.687-0.703-2.057l-3.252-1.603c-0.16-0.072-0.344-0.122-0.518-0.135-0.627-0.074-1.255 0.26-1.539 0.85C69.216 31.553 69.499 32.45 70.227 32.832z" fill="#ffffff" data-fill-palette-color="accent"></path><path d="M78.367 38.622l-3.129-0.445c-0.85-0.134-1.625 0.457-1.749 1.295-0.123 0.849 0.469 1.626 1.307 1.748l3.128 0.455c0.073 0.012 0.147 0.012 0.222 0.012 0.751 0 1.403-0.553 1.514-1.315C79.783 39.531 79.205 38.745 78.367 38.622z" fill="#ffffff" data-fill-palette-color="accent"></path><path d="M76.631 45.776c-0.32-0.774-1.231-1.146-2.009-0.825l-3.103 1.294c-0.789 0.332-1.157 1.231-0.837 2.019 0.245 0.592 0.824 0.95 1.429 0.95 0.197 0 0.395-0.039 0.59-0.123l3.104-1.294C76.594 47.465 76.963 46.565 76.631 45.776z" fill="#ffffff" data-fill-palette-color="accent"></path><path d="M71.286 58.869l-0.26 3.349c-0.061 0.851 0.567 1.59 1.417 1.652 0.037 0.012 0.074 0.012 0.122 0.012 0.789 0 1.467-0.616 1.527-1.429l0.26-3.351c0.061-0.85-0.567-1.588-1.416-1.65C72.099 57.365 71.346 58.02 71.286 58.869z" fill="#ffffff" data-fill-palette-color="accent"></path><path d="M70.521 71.505c0.295 0.37 0.739 0.565 1.195 0.565 0.332 0 0.677-0.111 0.973-0.345l2.6-2.131c0.663-0.529 0.75-1.501 0.221-2.167-0.541-0.652-1.516-0.751-2.167-0.21l-2.612 2.12C70.078 69.879 69.979 70.853 70.521 71.505z" fill="#ffffff" data-fill-palette-color="accent"></path><path d="M79.279 56.8c0.332 0 0.676-0.11 0.96-0.334 0.665-0.541 0.764-1.501 0.233-2.167l-2.314-2.882c-0.53-0.664-1.491-0.774-2.155-0.245-0.666 0.528-0.777 1.501-0.248 2.167l2.316 2.882C78.38 56.603 78.822 56.8 79.279 56.8z" fill="#ffffff" data-fill-palette-color="accent"></path></g><path d="M48.587 35.161c-0.369-0.766-1.305-1.073-2.057-0.69l-9.188 4.544-5.887 2.908c-0.765 0.38-1.072 1.304-0.69 2.068 0.259 0.541 0.813 0.849 1.38 0.849 0.222 0 0.456-0.048 0.677-0.158l0.666-0.334 14.409-7.118C48.648 36.847 48.968 35.923 48.587 35.161z" fill="#ffffff" data-fill-palette-color="accent"></path><g fill="#ffffff" data-fill-palette-color="accent"><path d="M98.959 39.878C94.181 16.773 73.613 0.01 50.053 0.01c-3.398 0-6.811 0.347-10.173 1.049C26.8 3.755 15.568 11.39 8.227 22.549 0.9 33.708-1.649 47.046 1.048 60.125 5.826 83.229 26.393 99.99 49.954 99.99c3.399 0 6.811-0.344 10.173-1.034C87.111 93.365 104.539 66.874 98.959 39.878zM4.065 59.497C1.527 47.229 3.93 34.704 10.802 24.235 17.687 13.767 28.229 6.601 40.508 4.063c3.141-0.654 6.355-0.975 9.545-0.975 22.106 0 41.405 15.729 45.889 37.417 5.234 25.322-11.108 50.188-36.442 55.434-3.153 0.651-6.355 0.972-9.545 0.972C27.847 96.911 8.548 81.185 4.065 59.497z" fill="#ffffff" data-fill-palette-color="accent"></path><path d="M28.378 17.88c8.436-5.652 18.521-7.745 28.485-5.935 0.234 0.036 0.469 0.072 0.702 0.123 0.825 0.171 1.638-0.37 1.812-1.207 0.158-0.825-0.383-1.639-1.208-1.812-10.998-2.204-22.181 0.026-31.504 6.269C8.499 27.487 2.771 51.874 13.61 70.814c0.282 0.505 0.813 0.777 1.343 0.777 0.258 0 0.517-0.063 0.762-0.197 0.74-0.419 0.999-1.367 0.568-2.107-0.111-0.209-0.235-0.406-0.334-0.616C6.355 51.22 11.751 29.015 28.378 17.88z" fill="#ffffff" data-fill-palette-color="accent"></path><path d="M84.821 26.946c-0.025-0.051-0.062-0.099-0.099-0.149-1.01-1.513-2.131-2.968-3.313-4.322-1.75-2.007-3.694-3.842-5.789-5.456-0.677-0.529-1.638-0.395-2.155 0.272-0.528 0.676-0.406 1.638 0.272 2.155 0.158 0.122 0.308 0.245 0.454 0.368 1.761 1.404 3.411 2.979 4.902 4.692 1.096 1.256 2.13 2.598 3.091 4.015 0.024 0.051 0.05 0.099 0.087 0.135 11.762 17.735 6.946 41.79-10.74 53.637-5.468 3.659-11.787 5.874-18.301 6.418-0.197 0.024-0.383 0.036-0.579 0.048-0.85 0.062-1.489 0.802-1.43 1.65 0.051 0.813 0.727 1.429 1.528 1.429h0.11c7.255-0.493 14.312-2.918 20.384-6.995C92.346 72.058 97.53 46.084 84.821 26.946z" fill="#ffffff" data-fill-palette-color="accent"></path><path d="M35.558 86.087c-4.373-1.749-8.338-4.236-11.786-7.402-0.628-0.579-1.603-0.528-2.168 0.087-0.579 0.628-0.542 1.6 0.086 2.18 3.731 3.411 8.005 6.107 12.722 7.993 0.185 0.074 0.382 0.11 0.567 0.11 0.615 0 1.195-0.37 1.44-0.974C36.727 87.294 36.345 86.395 35.558 86.087z" fill="#ffffff" data-fill-palette-color="accent"></path><path d="M58.526 71.319c3.731-2.831 3.756-6.43 3.361-11.061-0.036-0.442-0.087-0.911-0.122-1.378-0.272-2.944-0.604-6.601-0.272-11.108 0.039-1.775 0.161-3.635 0.284-5.432 0.209-3.079 0.431-6.257 0.26-9.177-0.051-5.874-5.088-9.434-13.548-9.604-0.223-0.013-0.444-0.013-0.666-0.013-4.654 0-9.545 1.047-13.092 2.796l-2.586 1.279C25.753 30.788 18.45 38.793 17.76 45.689c-0.32 3.189 0.801 5.877 3.189 7.724 1.208 1.034 2.526 2.019 3.88 2.954 1.196 0.852 2.428 1.652 3.634 2.451 1.502 0.998 3.067 2.032 4.557 3.117 3.72 2.425 6.429 4.915 8.598 6.909 3.237 2.968 5.8 5.32 9.396 5.32 1.552 0 3.229-0.442 5.1-1.381C57.048 72.317 57.849 71.837 58.526 71.319zM43.698 66.578c-2.254-2.08-5.062-4.669-8.93-7.18-1.49-1.085-3.079-2.132-4.606-3.142-1.182-0.774-2.376-1.563-3.533-2.389-1.307-0.912-2.575-1.848-3.733-2.846-1.613-1.244-2.29-2.894-2.068-5.025 0.554-5.626 7.168-12.881 12.686-15.616l2.586-1.279c2.697-1.33 6.466-2.23 10.137-2.427h0.013c0.528-0.036 1.046-0.049 1.575-0.049 2.599 0 11.084 0.467 11.135 6.637 0.159 2.798-0.051 5.889-0.248 8.869-0.122 1.835-0.257 3.73-0.296 5.491-0.344 4.682 0 8.475 0.284 11.529 0.555 6.033 0.777 8.535-3.953 10.875-1.441 0.713-2.659 1.059-3.732 1.059C48.612 71.086 46.654 69.287 43.698 66.578z" fill="#ffffff" data-fill-palette-color="accent"></path><path d="M49.979 45.198c-0.381-0.765-1.305-1.072-2.068-0.702l-9.324 4.619c-0.75 0.367-1.07 1.291-0.688 2.057 0.271 0.541 0.812 0.86 1.379 0.86 0.233 0 0.468-0.048 0.678-0.158l9.322-4.618C50.041 46.885 50.349 45.961 49.979 45.198z" fill="#ffffff" data-fill-palette-color="accent"></path><path d="M50.263 54.053l-5.493 2.721c-0.764 0.383-1.071 1.307-0.702 2.057 0.271 0.544 0.812 0.864 1.379 0.864 0.233 0 0.468-0.051 0.69-0.161l5.492-2.721c0.765-0.371 1.072-1.294 0.69-2.057C51.948 53.99 51.024 53.683 50.263 54.053z" fill="#ffffff" data-fill-palette-color="accent"></path></g></svg></g></svg></g></svg></g><defs></defs></svg><rect width="395.52" height="62.85650094218493" fill="none" stroke="none" visibility="hidden"></rect></g></svg></g></svg>